<svg xmlns="http://www.w3.org/2000/svg" width="94" height="13" fill="none"><g opacity=".5" style="mix-blend-mode:hard-light"><mask id="a" width="96" height="15" x="-1" y="-1" fill="#000" maskUnits="userSpaceOnUse"><path fill="#fff" d="M-1-1h96v15H-1z"/><path d="M6 12.25V10.5H4.25V8.75H2.5V7H.75V5.25H2.5V3.5h1.75V1.75H6V0h3.5v1.75H7.75V3.5H6v1.75H4.25V7H6v1.75h1.75v1.75H9.5v1.75H6ZM25.25 0v1.75H23.5V0h1.75Zm-3.5 1.75h1.75V3.5h-1.75V1.75ZM20 3.5h1.75v1.75H20V3.5Zm-1.75 1.75H20V7h-1.75V5.25ZM16.5 7h1.75v1.75H16.5V7Zm-1.75 1.75h1.75v1.75h-1.75V8.75ZM13 10.5h1.75v1.75H13V10.5Zm14 1.75V0h3.5v5.25h5.25V0h3.5v12.25h-3.5V7H30.5v5.25H27Zm19.25 0V1.75h-3.5V0h10.5v1.75h-3.5v10.5h-3.5Zm8.75 0V0h3.5v1.75h1.75V3.5H62V1.75h1.75V0h3.5v12.25h-3.5v-7H62v3.5h-1.75v-3.5H58.5v7H55Zm15.75 0V0h3.5v10.5h7v1.75h-10.5Zm14 0V10.5h1.75V8.75h1.75V7H90V5.25h-1.75V3.5H86.5V1.75h-1.75V0h3.5v1.75H90V3.5h1.75v1.75h1.75V7h-1.75v1.75H90v1.75h-1.75v1.75h-3.5Z"/></mask><path fill="#000" d="M6 12.25V10.5H4.25V8.75H2.5V7H.75V5.25H2.5V3.5h1.75V1.75H6V0h3.5v1.75H7.75V3.5H6v1.75H4.25V7H6v1.75h1.75v1.75H9.5v1.75H6ZM25.25 0v1.75H23.5V0h1.75Zm-3.5 1.75h1.75V3.5h-1.75V1.75ZM20 3.5h1.75v1.75H20V3.5Zm-1.75 1.75H20V7h-1.75V5.25ZM16.5 7h1.75v1.75H16.5V7Zm-1.75 1.75h1.75v1.75h-1.75V8.75ZM13 10.5h1.75v1.75H13V10.5Zm14 1.75V0h3.5v5.25h5.25V0h3.5v12.25h-3.5V7H30.5v5.25H27Zm19.25 0V1.75h-3.5V0h10.5v1.75h-3.5v10.5h-3.5Zm8.75 0V0h3.5v1.75h1.75V3.5H62V1.75h1.75V0h3.5v12.25h-3.5v-7H62v3.5h-1.75v-3.5H58.5v7H55Zm15.75 0V0h3.5v10.5h7v1.75h-10.5Zm14 0V10.5h1.75V8.75h1.75V7H90V5.25h-1.75V3.5H86.5V1.75h-1.75V0h3.5v1.75H90V3.5h1.75v1.75h1.75V7h-1.75v1.75H90v1.75h-1.75v1.75h-3.5Z"/><path fill="#fff" d="M6 12.25H5v1h1v-1Zm0-1.75h1v-1H6v1Zm-1.75 0h-1v1h1v-1Zm0-1.75h1v-1h-1v1Zm-1.75 0h-1v1h1v-1ZM2.5 7h1V6h-1v1ZM.75 7h-1v1h1V7Zm0-1.75v-1h-1v1h1Zm1.75 0v1h1v-1h-1Zm0-1.75v-1h-1v1h1Zm1.75 0v1h1v-1h-1Zm0-1.75v-1h-1v1h1Zm1.75 0v1h1v-1H6ZM6 0v-1H5v1h1Zm3.5 0h1v-1h-1v1Zm0 1.75v1h1v-1h-1Zm-1.75 0v-1h-1v1h1Zm0 1.75v1h1v-1h-1ZM6 3.5v-1H5v1h1Zm0 1.75v1h1v-1H6Zm-1.75 0v-1h-1v1h1Zm0 1.75h-1v1h1V7ZM6 7h1V6H6v1Zm0 1.75H5v1h1v-1Zm1.75 0h1v-1h-1v1Zm0 1.75h-1v1h1v-1Zm1.75 0h1v-1h-1v1Zm0 1.75v1h1v-1h-1Zm-2.5 0V10.5H5v1.75h2ZM6 9.5H4.25v2H6v-2Zm-.75 1V8.75h-2v1.75h2Zm-1-2.75H2.5v2h1.75v-2Zm-.75 1V7h-2v1.75h2ZM2.5 6H.75v2H2.5V6Zm-.75 1V5.25h-2V7h2Zm-1-.75H2.5v-2H.75v2Zm2.75-1V3.5h-2v1.75h2Zm-1-.75h1.75v-2H2.5v2Zm2.75-1V1.75h-2V3.5h2Zm-1-.75H6v-2H4.25v2Zm2.75-1V0H5v1.75h2ZM6 1h3.5v-2H6v2Zm2.5-1v1.75h2V0h-2Zm1 .75H7.75v2H9.5v-2Zm-2.75 1V3.5h2V1.75h-2Zm1 .75H6v2h1.75v-2ZM5 3.5v1.75h2V3.5H5Zm1 .75H4.25v2H6v-2Zm-2.75 1V7h2V5.25h-2Zm1 2.75H6V6H4.25v2ZM5 7v1.75h2V7H5Zm1 2.75h1.75v-2H6v2Zm.75-1v1.75h2V8.75h-2Zm1 2.75H9.5v-2H7.75v2Zm.75-1v1.75h2V10.5h-2Zm1 .75H6v2h3.5v-2ZM25.25 0h1v-1h-1v1Zm0 1.75v1h1v-1h-1Zm-1.75 0h-1v1h1v-1Zm0-1.75v-1h-1v1h1Zm-1.75 1.75v-1h-1v1h1Zm1.75 0h1v-1h-1v1Zm0 1.75v1h1v-1h-1Zm-1.75 0h-1v1h1v-1ZM20 3.5v-1h-1v1h1Zm1.75 0h1v-1h-1v1Zm0 1.75v1h1v-1h-1Zm-1.75 0h-1v1h1v-1Zm-1.75 0v-1h-1v1h1Zm1.75 0h1v-1h-1v1ZM20 7v1h1V7h-1Zm-1.75 0h-1v1h1V7ZM16.5 7V6h-1v1h1Zm1.75 0h1V6h-1v1Zm0 1.75v1h1v-1h-1Zm-1.75 0h-1v1h1v-1Zm-1.75 0v-1h-1v1h1Zm1.75 0h1v-1h-1v1Zm0 1.75v1h1v-1h-1Zm-1.75 0h-1v1h1v-1Zm-1.75 0v-1h-1v1h1Zm1.75 0h1v-1h-1v1Zm0 1.75v1h1v-1h-1Zm-1.75 0h-1v1h1v-1ZM24.25 0v1.75h2V0h-2Zm1 .75H23.5v2h1.75v-2Zm-.75 1V0h-2v1.75h2Zm-1-.75h1.75v-2H23.5v2Zm-1.75 1.75h1.75v-2h-1.75v2Zm.75-1V3.5h2V1.75h-2Zm1 .75h-1.75v2h1.75v-2Zm-.75 1V1.75h-2V3.5h2ZM20 4.5h1.75v-2H20v2Zm.75-1v1.75h2V3.5h-2Zm1 .75H20v2h1.75v-2Zm-.75 1V3.5h-2v1.75h2Zm-2.75 1H20v-2h-1.75v2Zm.75-1V7h2V5.25h-2ZM20 6h-1.75v2H20V6Zm-.75 1V5.25h-2V7h2ZM16.5 8h1.75V6H16.5v2Zm.75-1v1.75h2V7h-2Zm1 .75H16.5v2h1.75v-2Zm-.75 1V7h-2v1.75h2Zm-2.75 1h1.75v-2h-1.75v2Zm.75-1v1.75h2V8.75h-2Zm1 .75h-1.75v2h1.75v-2Zm-.75 1V8.75h-2v1.75h2Zm-2.75 1h1.75v-2H13v2Zm.75-1v1.75h2V10.5h-2Zm1 .75H13v2h1.75v-2Zm-.75 1V10.5h-2v1.75h2Zm13 0h-1v1h1v-1ZM27 0v-1h-1v1h1Zm3.5 0h1v-1h-1v1Zm0 5.25h-1v1h1v-1Zm5.25 0v1h1v-1h-1Zm0-5.25v-1h-1v1h1Zm3.5 0h1v-1h-1v1Zm0 12.25v1h1v-1h-1Zm-3.5 0h-1v1h1v-1Zm0-5.25h1V6h-1v1ZM30.5 7V6h-1v1h1Zm0 5.25v1h1v-1h-1Zm-2.5 0V0h-2v12.25h2ZM27 1h3.5v-2H27v2Zm2.5-1v5.25h2V0h-2Zm1 6.25h5.25v-2H30.5v2Zm6.25-1V0h-2v5.25h2Zm-1-4.25h3.5v-2h-3.5v2Zm2.5-1v12.25h2V0h-2Zm1 11.25h-3.5v2h3.5v-2Zm-2.5 1V7h-2v5.25h2Zm-1-6.25H30.5v2h5.25V6ZM29.5 7v5.25h2V7h-2Zm1 4.25H27v2h3.5v-2Zm15.75 1h-1v1h1v-1Zm0-10.5h1v-1h-1v1Zm-3.5 0h-1v1h1v-1Zm0-1.75v-1h-1v1h1Zm10.5 0h1v-1h-1v1Zm0 1.75v1h1v-1h-1Zm-3.5 0v-1h-1v1h1Zm0 10.5v1h1v-1h-1Zm-2.5 0V1.75h-2v10.5h2Zm-1-11.5h-3.5v2h3.5v-2Zm-2.5 1V0h-2v1.75h2Zm-1-.75h10.5v-2h-10.5v2Zm9.5-1v1.75h2V0h-2Zm1 .75h-3.5v2h3.5v-2Zm-4.5 1v10.5h2V1.75h-2Zm1 9.5h-3.5v2h3.5v-2Zm5.25 1h-1v1h1v-1ZM55 0v-1h-1v1h1Zm3.5 0h1v-1h-1v1Zm0 1.75h-1v1h1v-1Zm1.75 0h1v-1h-1v1Zm0 1.75h-1v1h1v-1Zm1.75 0v1h1v-1h-1Zm0-1.75v-1h-1v1h1Zm1.75 0v1h1v-1h-1Zm0-1.75v-1h-1v1h1Zm3.5 0h1v-1h-1v1Zm0 12.25v1h1v-1h-1Zm-3.5 0h-1v1h1v-1Zm0-7h1v-1h-1v1Zm-1.75 0v-1h-1v1h1Zm0 3.5v1h1v-1h-1Zm-1.75 0h-1v1h1v-1Zm0-3.5h1v-1h-1v1Zm-1.75 0v-1h-1v1h1Zm0 7v1h1v-1h-1Zm-2.5 0V0h-2v12.25h2ZM55 1h3.5v-2H55v2Zm2.5-1v1.75h2V0h-2Zm1 2.75h1.75v-2H58.5v2Zm.75-1V3.5h2V1.75h-2Zm1 2.75H62v-2h-1.75v2Zm2.75-1V1.75h-2V3.5h2Zm-1-.75h1.75v-2H62v2Zm2.75-1V0h-2v1.75h2Zm-1-.75h3.5v-2h-3.5v2Zm2.5-1v12.25h2V0h-2Zm1 11.25h-3.5v2h3.5v-2Zm-2.5 1v-7h-2v7h2Zm-1-8H62v2h1.75v-2Zm-2.75 1v3.5h2v-3.5h-2Zm1 2.5h-1.75v2H62v-2Zm-.75 1v-3.5h-2v3.5h2Zm-1-4.5H58.5v2h1.75v-2Zm-2.75 1v7h2v-7h-2Zm1 6H55v2h3.5v-2Zm12.25 1h-1v1h1v-1Zm0-12.25v-1h-1v1h1Zm3.5 0h1v-1h-1v1Zm0 10.5h-1v1h1v-1Zm7 0h1v-1h-1v1Zm0 1.75v1h1v-1h-1Zm-9.5 0V0h-2v12.25h2ZM70.75 1h3.5v-2h-3.5v2Zm2.5-1v10.5h2V0h-2Zm1 11.5h7v-2h-7v2Zm6-1v1.75h2V10.5h-2Zm1 .75h-10.5v2h10.5v-2Zm3.5 1h-1v1h1v-1Zm0-1.75v-1h-1v1h1Zm1.75 0v1h1v-1h-1Zm0-1.75v-1h-1v1h1Zm1.75 0v1h1v-1h-1Zm0-1.75V6h-1v1h1ZM90 7v1h1V7h-1Zm0-1.75h1v-1h-1v1Zm-1.75 0h-1v1h1v-1Zm0-1.75h1v-1h-1v1Zm-1.75 0h-1v1h1v-1Zm0-1.75h1v-1h-1v1Zm-1.75 0h-1v1h1v-1Zm0-1.75v-1h-1v1h1Zm3.5 0h1v-1h-1v1Zm0 1.75h-1v1h1v-1Zm1.75 0h1v-1h-1v1Zm0 1.75h-1v1h1v-1Zm1.75 0h1v-1h-1v1Zm0 1.75h-1v1h1v-1Zm1.75 0h1v-1h-1v1Zm0 1.75v1h1V7h-1Zm-1.75 0V6h-1v1h1Zm0 1.75v1h1v-1h-1Zm-1.75 0v-1h-1v1h1Zm0 1.75v1h1v-1h-1Zm-1.75 0v-1h-1v1h1Zm0 1.75v1h1v-1h-1Zm-2.5 0V10.5h-2v1.75h2Zm-1-.75h1.75v-2h-1.75v2Zm2.75-1V8.75h-2v1.75h2Zm-1-.75h1.75v-2H86.5v2Zm2.75-1V7h-2v1.75h2Zm-1-.75H90V6h-1.75v2ZM91 7V5.25h-2V7h2Zm-1-2.75h-1.75v2H90v-2Zm-.75 1V3.5h-2v1.75h2Zm-1-2.75H86.5v2h1.75v-2Zm-.75 1V1.75h-2V3.5h2Zm-1-2.75h-1.75v2h1.75v-2Zm-.75 1V0h-2v1.75h2Zm-1-.75h3.5v-2h-3.5v2Zm2.5-1v1.75h2V0h-2Zm1 2.75H90v-2h-1.75v2Zm.75-1V3.5h2V1.75h-2Zm1 2.75h1.75v-2H90v2Zm.75-1v1.75h2V3.5h-2Zm1 2.75h1.75v-2h-1.75v2Zm.75-1V7h2V5.25h-2Zm1 .75h-1.75v2h1.75V6Zm-2.75 1v1.75h2V7h-2Zm1 .75H90v2h1.75v-2Zm-2.75 1v1.75h2V8.75h-2Zm1 .75h-1.75v2H90v-2Zm-2.75 1v1.75h2V10.5h-2Zm1 .75h-3.5v2h3.5v-2Z" mask="url(#a)"/></g></svg>